<?xml version="1.0" encoding="UTF-8" standalone="no"?><svg xmlns="http://www.w3.org/2000/svg" xmlns:xlink="http://www.w3.org/1999/xlink" contentStyleType="text/css" height="551px" preserveAspectRatio="none" style="width:1196px;height:551px;background:#FFFFFF;" version="1.1" viewBox="0 0 1196 551" width="1196px" zoomAndPan="magnify"><defs/><g><rect fill="#00FFFF" height="33.9688" rx="12.5" ry="12.5" style="stroke:#181818;stroke-width:0.5;" width="52" x="689" y="7"/><text fill="#000000" font-family="Hasklig" font-size="12" lengthAdjust="spacing" textLength="32" x="699" y="28.1387">Início</text><rect fill="#00FF00" height="33.9688" rx="12.5" ry="12.5" style="stroke:#181818;stroke-width:0.5;" width="152" x="639" y="81"/><text fill="#000000" font-family="Hasklig" font-size="12" lengthAdjust="spacing" textLength="132" x="649" y="102.1387">Introdução ao C++:4</text><rect fill="#00FF00" height="33.9688" rx="12.5" ry="12.5" style="stroke:#181818;stroke-width:0.5;" width="104" x="255" y="155"/><text fill="#000000" font-family="Hasklig" font-size="12" lengthAdjust="spacing" textLength="84" x="265" y="176.1387">C++ nivel 2:2</text><rect fill="#00FF00" height="33.9688" rx="12.5" ry="12.5" style="stroke:#181818;stroke-width:0.5;" width="104" x="7" y="229"/><text fill="#000000" font-family="Hasklig" font-size="12" lengthAdjust="spacing" textLength="84" x="17" y="250.1387">C++ nivel 3:1</text><rect fill="#00FF00" height="33.9688" rx="12.5" ry="12.5" style="stroke:#181818;stroke-width:0.5;" width="91" x="600.5" y="155"/><text fill="#000000" font-family="Hasklig" font-size="12" lengthAdjust="spacing" textLength="71" x="610.5" y="176.1387">Recursão:9</text><rect fill="#00FF00" height="33.9688" rx="12.5" ry="12.5" style="stroke:#181818;stroke-width:0.5;" width="99" x="264.5" y="229"/><text fill="#000000" font-family="Hasklig" font-size="12" lengthAdjust="spacing" textLength="79" x="274.5" y="250.1387">Recursão:10</text><rect fill="#FFC0CB" height="33.9688" rx="12.5" ry="12.5" style="stroke:#181818;stroke-width:0.5;" width="132" x="384" y="229"/><text fill="#000000" font-family="Hasklig" font-size="12" lengthAdjust="spacing" textLength="112" x="394" y="250.1387">Recursão Visual:1</text><rect fill="#00FF00" height="33.9688" rx="12.5" ry="12.5" style="stroke:#181818;stroke-width:0.5;" width="167" x="536.5" y="229"/><text fill="#000000" font-family="Hasklig" font-size="12" lengthAdjust="spacing" textLength="147" x="546.5" y="250.1387">Análise de Algoritmos:2</text><rect fill="#00FF00" height="33.9688" rx="12.5" ry="12.5" style="stroke:#181818;stroke-width:0.5;" width="56" x="1009" y="155"/><text fill="#000000" font-family="Hasklig" font-size="12" lengthAdjust="spacing" textLength="36" x="1019" y="176.1387">TAD:2</text><rect fill="#FFC0CB" height="33.9688" rx="12.5" ry="12.5" style="stroke:#181818;stroke-width:0.5;" width="82" x="724" y="229"/><text fill="#000000" font-family="Hasklig" font-size="12" lengthAdjust="spacing" textLength="62" x="734" y="250.1387">Fractais:1</text><rect fill="#FFC0CB" height="33.9688" rx="12.5" ry="12.5" style="stroke:#181818;stroke-width:0.5;" width="113" x="131.5" y="229"/><text fill="#000000" font-family="Hasklig" font-size="12" lengthAdjust="spacing" textLength="93" x="141.5" y="250.1387">Backtracking:3</text><rect fill="#00FF00" height="33.9688" rx="12.5" ry="12.5" style="stroke:#181818;stroke-width:0.5;" width="146" x="791" y="155"/><text fill="#000000" font-family="Hasklig" font-size="12" lengthAdjust="spacing" textLength="126" x="801" y="176.1387">Ordenação Básico:1</text><rect fill="#00FF00" height="33.9688" rx="12.5" ry="12.5" style="stroke:#181818;stroke-width:0.5;" width="182" x="826" y="229"/><text fill="#000000" font-family="Hasklig" font-size="12" lengthAdjust="spacing" textLength="162" x="836" y="250.1387">Ordenação Quick Merge:1</text><rect fill="#00FF00" height="33.9688" rx="12.5" ry="12.5" style="stroke:#181818;stroke-width:0.5;" width="71" x="1028.5" y="229"/><text fill="#000000" font-family="Hasklig" font-size="12" lengthAdjust="spacing" textLength="51" x="1038.5" y="250.1387">Arrays:7</text><rect fill="#00FF00" height="33.9688" rx="12.5" ry="12.5" style="stroke:#181818;stroke-width:0.5;" width="53" x="957.5" y="303"/><text fill="#000000" font-family="Hasklig" font-size="12" lengthAdjust="spacing" textLength="33" x="967.5" y="324.1387">List:6</text><rect fill="#00FF00" height="33.9688" rx="12.5" ry="12.5" style="stroke:#181818;stroke-width:0.5;" width="67" x="1030.5" y="303"/><text fill="#000000" font-family="Hasklig" font-size="12" lengthAdjust="spacing" textLength="47" x="1040.5" y="324.1387">Stack:3</text><rect fill="#00FF00" height="33.9688" rx="12.5" ry="12.5" style="stroke:#181818;stroke-width:0.5;" width="73" x="1117.5" y="303"/><text fill="#000000" font-family="Hasklig" font-size="12" lengthAdjust="spacing" textLength="53" x="1127.5" y="324.1387">Queue:4</text><rect fill="#00FF00" height="33.9688" rx="12.5" ry="12.5" style="stroke:#181818;stroke-width:0.5;" width="60" x="954" y="377"/><text fill="#000000" font-family="Hasklig" font-size="12" lengthAdjust="spacing" textLength="40" x="964" y="398.1387">Tree:6</text><rect fill="#00FF00" height="33.9688" rx="12.5" ry="12.5" style="stroke:#181818;stroke-width:0.5;" width="134" x="917" y="451"/><text fill="#000000" font-family="Hasklig" font-size="12" lengthAdjust="spacing" textLength="114" x="927" y="472.1387">Em manutenção:5</text><ellipse cx="984" cy="535" fill="none" rx="10" ry="10" style="stroke:#222222;stroke-width:1.0;"/><ellipse cx="984.5" cy="535.5" fill="#222222" rx="6" ry="6" style="stroke:none;stroke-width:1.0;"/><!--MD5=[45aab45138774917f9f7ba01bfa9bb11]
link Início to Introdução ao C++:4--><g id="link_Início_Introdução ao C++:4"><path d="M715,41.34 C715,51.1 715,63.63 715,74.34 " fill="none" id="Início-to-Introdução ao C++:4" style="stroke:#181818;stroke-width:1.0;"/><polygon fill="#181818" points="715,79.21,719,70.21,715,74.21,711,70.21,715,79.21" style="stroke:#181818;stroke-width:1.0;"/></g><!--MD5=[139092c92c49ffb560c74f4be27d5b06]
link Introdução ao C++:4 to C++ nivel 2:2--><g id="link_Introdução ao C++:4_C++ nivel 2:2"><path d="M638.74,112.46 C559.59,126.42 437.53,147.97 365.62,160.66 " fill="none" id="Introdução ao C++:4-to-C++ nivel 2:2" style="stroke:#181818;stroke-width:1.0;"/><polygon fill="#181818" points="360.74,161.52,370.299,163.8919,365.6636,160.6494,368.9061,156.0141,360.74,161.52" style="stroke:#181818;stroke-width:1.0;"/></g><!--MD5=[5d160d5788a5a0cfd0ceac427a08fc5b]
link C++ nivel 2:2 to C++ nivel 3:1--><g id="link_C++ nivel 2:2_C++ nivel 3:1"><path d="M254.71,188.18 C214.48,199.86 158.91,215.99 117.26,228.09 " fill="none" id="C++ nivel 2:2-to-C++ nivel 3:1" style="stroke:#181818;stroke-width:1.0;"/><polygon fill="#181818" points="112.67,229.42,122.4263,230.7668,117.4738,228.0332,120.2074,223.0807,112.67,229.42" style="stroke:#181818;stroke-width:1.0;"/></g><!--MD5=[6bb41708817e94422aa47a6ee96b58be]
link Introdução ao C++:4 to Recursão:9--><g id="link_Introdução ao C++:4_Recursão:9"><path d="M699.34,115.34 C689.46,125.65 676.61,139.06 665.99,150.14 " fill="none" id="Introdução ao C++:4-to-Recursão:9" style="stroke:#181818;stroke-width:1.0;"/><polygon fill="#181818" points="662.64,153.63,671.7516,149.8911,666.0961,150.0168,665.9704,144.3613,662.64,153.63" style="stroke:#181818;stroke-width:1.0;"/></g><!--MD5=[93abdc9e1994bc6b07efb58e946cc523]
link Recursão:9 to Recursão:10--><g id="link_Recursão:9_Recursão:10"><path d="M600.1,181.61 C545.89,191.98 453.07,210.34 374,229 C372.64,229.32 371.26,229.65 369.86,229.99 " fill="none" id="Recursão:9-to-Recursão:10" style="stroke:#181818;stroke-width:1.0;"/><polygon fill="#181818" points="365.18,231.15,374.8767,232.8746,370.0341,229.9508,372.9579,225.1081,365.18,231.15" style="stroke:#181818;stroke-width:1.0;"/></g><!--MD5=[67412e480c0ccbd638229e90adc30464]
link Recursão:9 to Recursão Visual:1--><g id="link_Recursão:9_Recursão Visual:1"><path d="M601.52,189.34 C571.43,200.39 531.63,215.01 500.37,226.5 " fill="none" id="Recursão:9-to-Recursão Visual:1" style="stroke:#181818;stroke-width:1.0;"/><polygon fill="#181818" points="496.06,228.08,505.8875,228.7276,500.7527,226.3541,503.1261,221.2193,496.06,228.08" style="stroke:#181818;stroke-width:1.0;"/></g><!--MD5=[825e9dc84cfc35bd5ffded4fd1521f20]
link Recursão:9 to Análise de Algoritmos:2--><g id="link_Recursão:9_Análise de Algoritmos:2"><path d="M640.1,189.34 C636.54,199.19 631.96,211.87 628.07,222.64 " fill="none" id="Recursão:9-to-Análise de Algoritmos:2" style="stroke:#181818;stroke-width:1.0;"/><polygon fill="#181818" points="626.39,227.3,633.1936,220.1788,628.078,222.5936,625.6633,217.478,626.39,227.3" style="stroke:#181818;stroke-width:1.0;"/></g><!--MD5=[903d6c7adc7af92b9435735c54b32476]
link Introdução ao C++:4 to TAD:2--><g id="link_Introdução ao C++:4_TAD:2"><path d="M788.47,115.43 C855.58,130.43 951.83,151.96 1002.61,163.31 " fill="none" id="Introdução ao C++:4-to-TAD:2" style="stroke:#181818;stroke-width:1.0;"/><polygon fill="#181818" points="1007.39,164.38,999.4884,158.5009,1002.5121,163.2818,997.7312,166.3055,1007.39,164.38" style="stroke:#181818;stroke-width:1.0;"/></g><!--MD5=[8b45afc3f1a9495fbe56c822978fdf6b]
link Recursão:9 to Fractais:1--><g id="link_Recursão:9_Fractais:1"><path d="M673,189.34 C690.8,200.11 714.2,214.27 732.95,225.61 " fill="none" id="Recursão:9-to-Fractais:1" style="stroke:#181818;stroke-width:1.0;"/><polygon fill="#181818" points="736.81,227.94,731.1822,219.8574,732.5327,225.3507,727.0394,226.7011,736.81,227.94" style="stroke:#181818;stroke-width:1.0;"/></g><!--MD5=[cee201c7a7cb6a97f0fe2ae5cae51736]
link Recursão:9 to Backtracking:3--><g id="link_Recursão:9_Backtracking:3"><path d="M600.2,178.1 C526.78,186.59 378.39,205.09 254,229 C253.06,229.18 252.11,229.37 251.16,229.56 " fill="none" id="Recursão:9-to-Backtracking:3" style="stroke:#181818;stroke-width:1.0;"/><polygon fill="#181818" points="246.29,230.56,255.9152,232.6471,251.1856,229.5437,254.289,224.8141,246.29,230.56" style="stroke:#181818;stroke-width:1.0;"/></g><!--MD5=[25d92760986928b551b8d9547274d025]
link Introdução ao C++:4 to Ordenação Básico:1--><g id="link_Introdução ao C++:4_Ordenação Básico:1"><path d="M748.81,115.34 C771.21,126.16 800.69,140.41 824.22,151.78 " fill="none" id="Introdução ao C++:4-to-Ordenação Básico:1" style="stroke:#181818;stroke-width:1.0;"/><polygon fill="#181818" points="828.7,153.94,822.3327,146.4262,824.1969,151.7671,818.856,153.6312,828.7,153.94" style="stroke:#181818;stroke-width:1.0;"/></g><!--MD5=[8616440da0ada39b3fbeb454ae1d99f6]
link Ordenação Básico:1 to Ordenação Quick Merge:1--><g id="link_Ordenação Básico:1_Ordenação Quick Merge:1"><path d="M876.03,189.34 C883.48,199.46 893.14,212.58 901.21,223.54 " fill="none" id="Ordenação Básico:1-to-Ordenação Quick Merge:1" style="stroke:#181818;stroke-width:1.0;"/><polygon fill="#181818" points="904.12,227.51,901.9968,217.8927,901.1521,223.4862,895.5586,222.6414,904.12,227.51" style="stroke:#181818;stroke-width:1.0;"/></g><!--MD5=[6f12bcdb444aa06107ae0c256367540a]
link Recursão:9 to Ordenação Quick Merge:1--><g id="link_Recursão:9_Ordenação Quick Merge:1"><path d="M691.97,185.21 C734.98,196.64 799.78,213.86 848.81,226.88 " fill="none" id="Recursão:9-to-Ordenação Quick Merge:1" style="stroke:#181818;stroke-width:1.0;"/><polygon fill="#181818" points="853.55,228.14,845.8652,221.9801,848.7148,226.8668,843.8281,229.7164,853.55,228.14" style="stroke:#181818;stroke-width:1.0;"/></g><!--MD5=[2c344ecb2f826509334fb90d0891a98b]
link TAD:2 to Arrays:7--><g id="link_TAD:2_Arrays:7"><path d="M1043.13,189.34 C1046.82,199.19 1051.58,211.87 1055.62,222.64 " fill="none" id="TAD:2-to-Arrays:7" style="stroke:#181818;stroke-width:1.0;"/><polygon fill="#181818" points="1057.37,227.31,1057.9552,217.4785,1055.6144,222.6284,1050.4646,220.2875,1057.37,227.31" style="stroke:#181818;stroke-width:1.0;"/></g><!--MD5=[676b0bf6b707b2e97cf8dca3bb95f66b]
link Recursão:9 to Arrays:7--><g id="link_Recursão:9_Arrays:7"><path d="M691.71,178.8 C776.92,189.8 956.89,213.91 1018,229 C1019.33,229.33 1020.68,229.68 1022.04,230.05 " fill="none" id="Recursão:9-to-Arrays:7" style="stroke:#181818;stroke-width:1.0;"/><polygon fill="#181818" points="1026.58,231.36,1019.0376,225.0266,1021.7751,229.977,1016.8247,232.7145,1026.58,231.36" style="stroke:#181818;stroke-width:1.0;"/></g><!--MD5=[88bed51eed7bbc2684e09d222e57cfe8]
link Arrays:7 to List:6--><g id="link_Arrays:7_List:6"><path d="M1045.85,263.34 C1034.29,273.74 1019.22,287.3 1006.85,298.43 " fill="none" id="Arrays:7-to-List:6" style="stroke:#181818;stroke-width:1.0;"/><polygon fill="#181818" points="1003.21,301.71,1012.5755,298.6625,1006.9265,298.3652,1007.2238,292.7161,1003.21,301.71" style="stroke:#181818;stroke-width:1.0;"/></g><!--MD5=[edd503bd1ad80390abf5d3b3b08fdbf6]
link Arrays:7 to Stack:3--><g id="link_Arrays:7_Stack:3"><path d="M1064,263.34 C1064,273.1 1064,285.63 1064,296.34 " fill="none" id="Arrays:7-to-Stack:3" style="stroke:#181818;stroke-width:1.0;"/><polygon fill="#181818" points="1064,301.21,1068,292.21,1064,296.21,1060,292.21,1064,301.21" style="stroke:#181818;stroke-width:1.0;"/></g><!--MD5=[4982ce47fa24739b1bcb8f976d5c6642]
link Arrays:7 to Queue:4--><g id="link_Arrays:7_Queue:4"><path d="M1084.42,263.34 C1097.54,273.83 1114.68,287.54 1128.66,298.73 " fill="none" id="Arrays:7-to-Queue:4" style="stroke:#181818;stroke-width:1.0;"/><polygon fill="#181818" points="1132.48,301.78,1127.9627,293.0282,1128.5798,298.6513,1122.9568,299.2685,1132.48,301.78" style="stroke:#181818;stroke-width:1.0;"/></g><!--MD5=[e18131bea13493d65ef396ec0c61360f]
link List:6 to Tree:6--><g id="link_List:6_Tree:6"><path d="M984,337.34 C984,347.1 984,359.63 984,370.34 " fill="none" id="List:6-to-Tree:6" style="stroke:#181818;stroke-width:1.0;"/><polygon fill="#181818" points="984,375.21,988,366.21,984,370.21,980,366.21,984,375.21" style="stroke:#181818;stroke-width:1.0;"/></g><!--MD5=[211e5d5472e0d959b759e2a32913f5ee]
link Tree:6 to Em manutenção:5--><g id="link_Tree:6_Em manutenção:5"><path d="M984,411.34 C984,421.1 984,433.63 984,444.34 " fill="none" id="Tree:6-to-Em manutenção:5" style="stroke:#181818;stroke-width:1.0;"/><polygon fill="#181818" points="984,449.21,988,440.21,984,444.21,980,440.21,984,449.21" style="stroke:#181818;stroke-width:1.0;"/></g><!--MD5=[0cada97afba6f6c3006c779feeacdf4c]
link Em manutenção:5 to end--><g id="link_Em manutenção:5_end"><path d="M984,485.4 C984,495.55 984,508.49 984,518.47 " fill="none" id="Em manutenção:5-to-end" style="stroke:#181818;stroke-width:1.0;"/><polygon fill="#181818" points="984,523.32,988,514.32,984,518.32,980,514.32,984,523.32" style="stroke:#181818;stroke-width:1.0;"/></g><!--MD5=[c2d4422ccdfe630443b54de49532eb17]
@startuml graph
skinparam defaultFontName Hasklig
Início #cyan - -> "Introdução ao C++:4" #lime
"Introdução ao C++:4" #lime - -> "C++ nivel 2:2" #lime
"C++ nivel 2:2" #lime - -> "C++ nivel 3:1" #lime
"Introdução ao C++:4" #lime - -> "Recursão:9" #lime
"Recursão:9" #lime - -> "Recursão:10" #lime
"Recursão:9" #lime - -> "Recursão Visual:1" #pink
"Recursão:9" #lime - -> "Análise de Algoritmos:2" #lime
"Introdução ao C++:4" #lime - -> "TAD:2" #lime
"Recursão:9" #lime - -> "Fractais:1" #pink
"Recursão:9" #lime - -> "Backtracking:3" #pink
"Introdução ao C++:4" #lime - -> "Ordenação Básico:1" #lime
"Ordenação Básico:1" #lime - -> "Ordenação Quick Merge:1" #lime
"Recursão:9" #lime - -> "Ordenação Quick Merge:1" #lime
"TAD:2" #lime - -> "Arrays:7" #lime
"Recursão:9" #lime - -> "Arrays:7" #lime
"Arrays:7" #lime - -> "List:6" #lime
"Arrays:7" #lime - -> "Stack:3" #lime
"Arrays:7" #lime - -> "Queue:4" #lime
"List:6" #lime - -> "Tree:6" #lime
"Tree:6" #lime - -> "Em manutenção:5" #lime
"Em manutenção:5" #lime - -> (*)
@enduml

PlantUML version 1.2022.12(Sun Oct 23 18:12:26 GMT 2022)
(GPL source distribution)
Java Runtime: OpenJDK Runtime Environment
JVM: OpenJDK 64-Bit Server VM
Default Encoding: UTF-8
Language: en
Country: US
--></g></svg>